# xmcd
#
# Track frame offsets: 
#        150
#        2121
#        16895
#        31984
#        47490
#        63179
#        76980
#        91434
#        106752
#        110065
#        127048
#        140105
#        156993
#        175817
#        190310
#        206099
#        223238
#        239730
#        252844
#
# Disc length: 4204 seconds
#
# Revision: 0
# Processed by: cddbd v1.5.2PL0 Copyright (c) Steve Scherf et al.
# Submitted via: ExactAudioCopy v1.0b1
#
DISCID=11106a13
DTITLE=Colos - Leben Im Exil
DYEAR=2007
DGENRE=Hip-Hop
TTITLE0=Intro feat. Afrika Bambaataa
TTITLE1=Er macht den Shit für Euch (feat. Conna)
TTITLE2=Freude und Leid
TTITLE3=Ausländer raus (raus aus dem Ghetto)
TTITLE4=Heimatlos
TTITLE5=Glaub an Dich (feat. Dissput)
TTITLE6=Angst vor Der Zukunft
TTITLE7=Dein Leben - Dein Weg
TTITLE8=What is.. (Skit) (feat. Afrika Bambaataa)
TTITLE9=Identität
TTITLE10=Colos (feat. Woroc)
TTITLE11=Honigblut (Blut an Unseren Händen)
TTITLE12=Dein Leben im Exil (feat. Kamilla)
TTITLE13=StrassenReport (feat. Deso Dogg)
TTITLE14=Wölfe and Schafe
TTITLE15=Hey You
TTITLE16=Werdegang
TTITLE17=Outro (feat. Afrika Bambaataa)
TTITLE18=BONUS: VIDEO-CLIP Ausländer raus... (raus aus dem Ghetto!) 
EXTD=
EXTT0=
EXTT1=
EXTT2=
EXTT3=
EXTT4=
EXTT5=
EXTT6=
EXTT7=
EXTT8=
EXTT9=
EXTT10=
EXTT11=
EXTT12=
EXTT13=
EXTT14=
EXTT15=
EXTT16=
EXTT17=
EXTT18=
PLAYORDER=
